<?xml version="1.0" standalone="no"?>
<!DOCTYPE svg PUBLIC "-//W3C//DTD SVG 20010904//EN"
 "http://www.w3.org/TR/2001/REC-SVG-20010904/DTD/svg10.dtd">
<svg version="1.0" xmlns="http://www.w3.org/2000/svg"
 width="1200.000000pt" height="1200.000000pt" viewBox="0 0 1200.000000 1200.000000"
 preserveAspectRatio="xMidYMid meet">
<metadata>
Created by potrace 1.11, written by Peter Selinger 2001-2013
</metadata>
<g transform="translate(0.000000,1200.000000) scale(0.100000,-0.100000)"
fill="#000000" stroke="none">
<path d="M5927 10064 c-1 -1 -73 -5 -159 -8 -86 -4 -165 -8 -175 -10 -19 -4
-148 -17 -198 -21 -27 -2 -85 -11 -140 -21 -10 -2 -35 -6 -55 -9 -20 -3 -47
-7 -60 -10 -14 -3 -41 -8 -60 -11 -72 -13 -249 -56 -365 -90 -676 -197 -1263
-574 -1725 -1110 -440 -509 -689 -1062 -776 -1719 -37 -281 -36 -690 2 -945 3
-25 8 -60 10 -78 6 -61 35 -205 64 -322 74 -298 172 -537 328 -800 63 -105
209 -314 255 -362 6 -7 42 -48 79 -90 226 -254 519 -504 796 -677 98 -61 310
-171 379 -197 26 -9 53 -21 58 -25 12 -8 208 -77 239 -84 11 -2 48 -12 81 -21
33 -9 67 -17 75 -19 43 -9 70 -18 71 -24 3 -18 11 -347 10 -376 -1 -11 -1642
-12 -1781 -1 -146 12 -232 28 -327 60 -194 66 -302 162 -372 331 -34 82 -68
236 -70 323 -1 21 -4 22 -110 22 l-110 0 0 -914 c0 -695 3 -915 12 -918 7 -2
742 -3 1635 -3 1371 1 1625 4 1632 15 5 8 7 17 4 21 -2 4 -6 49 -9 100 -8 136
-13 223 -19 317 -9 126 -23 349 -31 492 -3 47 -7 112 -10 145 -2 33 -7 105
-10 160 -3 55 -8 127 -10 160 -2 33 -7 110 -10 170 -10 169 -12 185 -16 189
-2 2 -44 20 -92 40 -266 110 -485 251 -671 434 -157 154 -263 304 -365 513
-101 210 -232 633 -276 889 -3 19 -12 71 -20 115 -30 167 -47 310 -61 525 -14
204 -8 673 10 815 2 17 7 59 11 95 8 74 9 84 35 235 28 160 29 165 82 349 35
124 51 173 78 241 96 244 174 401 285 571 269 414 609 725 994 907 107 50 335
130 406 142 22 4 54 11 70 15 17 5 53 12 80 16 28 3 59 8 70 10 89 17 370 23
515 11 554 -46 1054 -297 1480 -742 179 -186 301 -355 418 -576 87 -164 217
-498 236 -606 4 -18 11 -44 16 -58 5 -14 12 -40 15 -58 3 -18 12 -59 20 -92
19 -88 47 -259 61 -380 3 -33 8 -68 10 -78 25 -135 25 -943 -1 -1097 -2 -14
-7 -54 -10 -90 -11 -106 -18 -161 -30 -230 -3 -14 -7 -41 -10 -60 -45 -277
-148 -605 -264 -840 -237 -477 -600 -808 -1078 -981 -61 -22 -93 -39 -94 -49
0 -8 -2 -22 -3 -30 -2 -8 -7 -51 -10 -95 -4 -44 -9 -100 -11 -125 -2 -25 -7
-76 -10 -115 -9 -116 -16 -198 -21 -245 -2 -25 -6 -74 -9 -110 -6 -69 -9 -114
-20 -225 -6 -74 -10 -122 -20 -245 -3 -41 -7 -93 -10 -115 -2 -22 -7 -71 -10
-110 -3 -38 -8 -90 -10 -115 -2 -25 -7 -79 -10 -120 -4 -41 -8 -81 -10 -87 -3
-7 3 -13 13 -14 55 -3 3249 -4 3259 -1 9 3 12 220 12 918 l0 914 -109 0 c-107
0 -110 -1 -111 -22 -7 -201 -91 -409 -218 -536 -77 -77 -227 -139 -401 -166
-94 -15 -280 -19 -1073 -20 l-857 -1 0 21 c0 11 4 45 10 75 5 30 11 70 14 89
3 19 11 74 17 122 l13 86 115 37 c356 114 709 289 996 493 235 168 465 383
625 587 30 39 61 76 68 84 7 8 58 81 112 163 152 229 290 517 369 773 30 98
75 270 85 330 3 17 8 39 10 50 2 11 7 40 11 65 4 25 9 52 10 60 1 8 6 44 10
80 4 36 9 74 11 84 24 128 23 706 -1 856 -2 14 -6 45 -9 70 -12 105 -49 294
-81 415 -115 437 -307 815 -596 1172 -79 96 -313 334 -424 430 -413 355 -946
628 -1480 757 -60 15 -126 31 -145 36 -19 5 -53 12 -75 15 -22 4 -47 8 -55 10
-8 3 -33 7 -55 10 -22 3 -65 10 -95 15 -85 14 -119 18 -205 25 -44 4 -87 9
-97 10 -44 9 -563 25 -571 19z"/>
</g>
</svg>
